<svg xmlns="http://www.w3.org/2000/svg" xmlns:xlink="http://www.w3.org/1999/xlink" width="425" zoomAndPan="magnify" viewBox="0 0 318.75 323.999988" height="432" preserveAspectRatio="xMidYMid meet" version="1.0"><path fill="#ff9900" d="M 204.910156 185.035156 C 199.613281 203.429688 180.148438 214.003906 161.433594 208.585938 C 142.695312 203.179688 131.828125 183.847656 137.140625 165.449219 C 142.425781 147.058594 161.890625 136.515625 180.636719 141.910156 C 199.34375 147.328125 210.242188 166.628906 204.910156 185.035156 Z M 204.910156 185.035156 " fill-opacity="1" fill-rule="nonzero"/><path fill="#ffd900" d="M 204.738281 182.957031 C 199.34375 201.6875 179.804688 212.535156 161.085938 207.109375 C 142.363281 201.710938 131.558594 182.105469 136.953125 163.371094 C 142.339844 144.644531 161.890625 133.832031 180.636719 139.230469 C 199.34375 144.644531 210.167969 164.210938 204.738281 182.957031 Z M 204.738281 182.957031 " fill-opacity="1" fill-rule="nonzero"/><path fill="#fff600" d="M 190.5625 144.074219 C 187.574219 142.035156 184.308594 140.296875 180.636719 139.230469 C 161.890625 133.832031 142.339844 144.644531 136.953125 163.371094 C 135.933594 166.925781 135.664062 170.476562 135.75 173.996094 C 150.683594 171.328125 177.667969 163.84375 190.5625 144.074219 Z M 190.5625 144.074219 " fill-opacity="1" fill-rule="nonzero"/><path fill="#ffa900" d="M 196.414062 180.554688 C 192.351562 194.691406 177.582031 202.886719 163.492188 198.769531 C 149.363281 194.691406 141.214844 179.917969 145.289062 165.78125 C 149.363281 151.648438 164.113281 143.515625 178.230469 147.570312 C 192.332031 151.660156 200.492188 166.398438 196.414062 180.554688 Z M 196.414062 180.554688 " fill-opacity="1" fill-rule="nonzero"/><path fill="#ff9900" d="M 170.894531 200.785156 C 168.308594 200.785156 165.730469 200.414062 163.226562 199.683594 C 156.152344 197.640625 150.292969 192.960938 146.730469 186.507812 C 143.167969 180.054688 142.332031 172.597656 144.375 165.515625 C 147.757812 153.773438 158.652344 145.574219 170.863281 145.574219 C 173.433594 145.574219 176 145.9375 178.496094 146.652344 C 193.085938 150.886719 201.535156 166.210938 197.328125 180.816406 C 193.949219 192.574219 183.078125 200.785156 170.894531 200.785156 Z M 170.863281 147.480469 C 159.496094 147.480469 149.351562 155.113281 146.199219 166.042969 C 144.300781 172.636719 145.082031 179.578125 148.394531 185.585938 C 151.710938 191.59375 157.167969 195.953125 163.757812 197.855469 C 166.089844 198.539062 168.488281 198.882812 170.894531 198.882812 C 182.238281 198.882812 192.355469 191.238281 195.503906 180.289062 C 199.417969 166.691406 191.550781 152.425781 177.96875 148.484375 C 175.648438 147.816406 173.257812 147.480469 170.863281 147.480469 Z M 170.863281 147.480469 " fill-opacity="1" fill-rule="nonzero"/><path fill="#ffffff" d="M 201.683594 165.867188 C 200.449219 153.617188 188.238281 145.664062 188.117188 145.582031 L 189.242188 143.824219 C 189.777344 144.167969 202.425781 152.414062 203.761719 165.660156 Z M 201.683594 165.867188 " fill-opacity="1" fill-rule="nonzero"/><path fill="#ffffa7" d="M 165.015625 205.984375 C 145.671875 202.816406 139.8125 185.695312 139.753906 185.523438 L 141.738281 184.867188 L 140.746094 185.195312 L 141.738281 184.867188 C 141.789062 185.027344 147.289062 200.964844 165.351562 203.921875 Z M 165.015625 205.984375 " fill-opacity="1" fill-rule="nonzero"/><path fill="#ffffff" d="M 186.035156 142.707031 C 185.882812 143.207031 183.84375 143.011719 181.484375 142.273438 C 179.132812 141.550781 177.363281 140.558594 177.503906 140.070312 C 177.65625 139.570312 179.683594 139.765625 182.046875 140.492188 C 184.386719 141.226562 186.183594 142.214844 186.035156 142.707031 Z M 186.035156 142.707031 " fill-opacity="1" fill-rule="nonzero"/><path fill="#ff8700" d="M 175.628906 185.632812 C 174.914062 185.929688 174.046875 186.042969 173.128906 186.109375 L 173.074219 177.515625 C 174.296875 177.863281 175.394531 178.21875 176.183594 178.679688 C 177.644531 179.558594 178.425781 180.894531 178.296875 182.328125 C 178.15625 183.785156 177.171875 185.023438 175.628906 185.632812 Z M 178.707031 175.089844 C 177.117188 174.140625 175.089844 173.566406 173.050781 173.054688 L 172.988281 164.027344 C 175.152344 164.679688 177.667969 165.992188 178.839844 167.21875 L 182.371094 164.414062 C 180.335938 162.257812 176.324219 160.296875 172.964844 159.605469 L 172.941406 155.152344 L 168.285156 155.167969 L 168.292969 159.570312 C 165.019531 160.148438 161.910156 161.816406 160.265625 164.023438 C 158.855469 165.917969 158.550781 168.089844 159.429688 170.164062 C 160.957031 173.777344 164.75 175.300781 168.402344 176.300781 L 168.457031 185.800781 C 164.535156 185.121094 160.503906 183.722656 158.679688 183.070312 L 156.992188 187.058594 C 160.566406 188.320312 164.621094 189.601562 168.5 190.160156 L 168.519531 195.144531 L 173.179688 195.125 L 173.160156 190.378906 C 174.699219 190.300781 176.171875 190.085938 177.496094 189.5625 C 180.574219 188.328125 182.675781 185.695312 182.945312 182.675781 C 183.21875 179.664062 181.644531 176.824219 178.707031 175.089844 Z M 163.773438 168.605469 C 163.578125 168.140625 163.40625 167.398438 164.113281 166.4375 C 164.933594 165.347656 166.570312 164.453125 168.328125 163.972656 L 168.371094 171.800781 C 166.203125 171.101562 164.445312 170.1875 163.773438 168.605469 Z M 163.773438 168.605469 " fill-opacity="1" fill-rule="nonzero"/><path fill="#ffff90" d="M 175.628906 183.65625 C 174.914062 183.953125 174.046875 184.066406 173.128906 184.132812 L 173.074219 175.539062 C 174.296875 175.886719 175.394531 176.246094 176.183594 176.707031 C 177.644531 177.585938 178.425781 178.917969 178.296875 180.351562 C 178.15625 181.8125 177.171875 183.046875 175.628906 183.65625 Z M 178.707031 173.113281 C 177.117188 172.164062 175.089844 171.589844 173.050781 171.082031 L 172.988281 162.054688 C 175.152344 162.703125 177.667969 164.019531 178.839844 165.242188 L 182.371094 162.4375 C 180.335938 160.285156 176.324219 158.320312 172.964844 157.632812 L 172.941406 153.175781 L 168.285156 153.195312 L 168.292969 157.59375 C 165.019531 158.175781 161.910156 159.839844 160.265625 162.046875 C 158.855469 163.941406 158.550781 166.117188 159.429688 168.1875 C 160.957031 171.800781 164.75 173.328125 168.402344 174.324219 L 168.457031 183.824219 C 164.535156 183.144531 160.503906 181.746094 158.679688 181.09375 L 156.992188 185.082031 C 160.566406 186.347656 164.621094 187.625 168.5 188.183594 L 168.519531 193.171875 L 173.179688 193.148438 L 173.160156 188.402344 C 174.699219 188.328125 176.171875 188.109375 177.496094 187.589844 C 180.574219 186.351562 182.675781 183.71875 182.945312 180.699219 C 183.21875 177.6875 181.644531 174.851562 178.707031 173.113281 Z M 163.773438 166.632812 C 163.578125 166.164062 163.40625 165.421875 164.113281 164.460938 C 164.933594 163.371094 166.570312 162.476562 168.328125 162 L 168.371094 169.828125 C 166.203125 169.128906 164.445312 168.210938 163.773438 166.632812 Z M 163.773438 166.632812 " fill-opacity="1" fill-rule="nonzero"/><path fill="#ff9900" d="M 296.25 206.957031 C 274.851562 281.230469 196.257812 323.917969 120.6875 302.039062 C 45.019531 280.222656 1.128906 202.160156 22.574219 127.890625 C 43.929688 53.636719 122.519531 11.082031 198.226562 32.851562 C 273.757812 54.734375 317.78125 132.644531 296.25 206.957031 Z M 296.25 206.957031 " fill-opacity="1" fill-rule="nonzero"/><path fill="#ffd900" d="M 295.546875 198.570312 C 273.757812 274.199219 194.859375 317.984375 119.285156 296.082031 C 43.664062 274.289062 0.0351562 195.128906 21.828125 119.5 C 43.578125 43.890625 122.519531 0.238281 198.226562 22.03125 C 273.757812 43.890625 317.476562 122.894531 295.546875 198.570312 Z M 295.546875 198.570312 " fill-opacity="1" fill-rule="nonzero"/><path fill="#fff600" d="M 238.308594 41.59375 C 226.230469 33.359375 213.058594 26.347656 198.226562 22.03125 C 122.519531 0.238281 43.578125 43.890625 21.828125 119.5 C 17.714844 133.847656 16.621094 148.191406 16.972656 162.386719 C 77.269531 151.632812 186.238281 121.40625 238.308594 41.59375 Z M 238.308594 41.59375 " fill-opacity="1" fill-rule="nonzero"/><path fill="#ffa900" d="M 261.941406 188.867188 C 245.53125 245.945312 185.890625 279.039062 128.996094 262.417969 C 71.933594 245.945312 39.027344 186.304688 55.480469 129.230469 C 71.933594 72.167969 131.496094 39.339844 188.515625 55.699219 C 245.445312 72.210938 278.398438 131.722656 261.941406 188.867188 Z M 261.941406 188.867188 " fill-opacity="1" fill-rule="nonzero"/><path fill="#ff9900" d="M 158.890625 270.558594 C 148.449219 270.558594 138.027344 269.058594 127.921875 266.105469 C 99.351562 257.859375 75.691406 238.964844 61.308594 212.90625 C 46.925781 186.851562 43.546875 156.753906 51.789062 128.160156 C 65.460938 80.757812 109.449219 47.648438 158.761719 47.648438 C 169.136719 47.648438 179.503906 49.113281 189.574219 52.003906 C 248.496094 69.09375 282.609375 130.96875 265.628906 189.933594 C 251.980469 237.402344 208.089844 270.558594 158.890625 270.558594 Z M 158.761719 55.339844 C 112.851562 55.339844 71.898438 86.160156 59.167969 130.292969 C 51.496094 156.914062 54.644531 184.933594 68.03125 209.191406 C 81.425781 233.449219 103.449219 251.039062 130.0625 258.722656 C 139.484375 261.476562 149.175781 262.871094 158.890625 262.871094 C 204.683594 262.871094 245.542969 232.003906 258.253906 187.804688 C 274.058594 132.90625 242.292969 75.300781 187.445312 59.390625 C 178.078125 56.703125 168.421875 55.339844 158.761719 55.339844 Z M 158.761719 55.339844 " fill-opacity="1" fill-rule="nonzero"/><path fill="#ffffff" d="M 283.214844 129.585938 C 278.226562 80.121094 228.921875 48.003906 228.425781 47.683594 L 232.96875 40.578125 C 235.140625 41.972656 286.207031 75.257812 291.609375 128.734375 Z M 283.214844 129.585938 " fill-opacity="1" fill-rule="nonzero"/><path fill="#ffffa7" d="M 135.144531 291.546875 C 57.03125 278.757812 33.371094 209.632812 33.140625 208.9375 L 41.144531 206.292969 L 37.140625 207.617188 L 41.144531 206.289062 C 41.359375 206.933594 63.554688 271.273438 136.503906 283.222656 Z M 135.144531 291.546875 " fill-opacity="1" fill-rule="nonzero"/><path fill="#ffffff" d="M 220.019531 36.074219 C 219.40625 38.085938 211.179688 37.300781 201.644531 34.320312 C 192.144531 31.40625 185.011719 27.398438 185.578125 25.429688 C 186.191406 23.414062 194.378906 24.203125 203.917969 27.136719 C 213.367188 30.09375 220.628906 34.078125 220.019531 36.074219 Z M 220.019531 36.074219 " fill-opacity="1" fill-rule="nonzero"/><path fill="#ff8700" d="M 178.007812 209.367188 C 175.117188 210.574219 171.621094 211.03125 167.902344 211.292969 L 167.683594 176.597656 C 172.628906 178.003906 177.046875 179.449219 180.246094 181.308594 C 186.148438 184.855469 189.300781 190.246094 188.773438 196.027344 C 188.207031 201.917969 184.226562 206.914062 178.007812 209.367188 Z M 190.441406 166.8125 C 184.003906 162.976562 175.820312 160.65625 167.597656 158.597656 L 167.332031 122.152344 C 176.085938 124.78125 186.238281 130.082031 190.960938 135.027344 L 205.230469 123.707031 C 197 115.011719 180.808594 107.082031 167.246094 104.300781 L 167.15625 86.316406 L 148.34375 86.382812 L 148.386719 104.148438 C 135.167969 106.492188 122.609375 113.214844 115.957031 122.128906 C 110.269531 129.773438 109.042969 138.554688 112.589844 146.921875 C 118.757812 161.511719 134.074219 167.664062 148.824219 171.695312 L 149.039062 210.046875 C 133.199219 207.308594 116.917969 201.660156 109.566406 199.03125 L 102.742188 215.128906 C 117.1875 220.230469 133.550781 225.398438 149.214844 227.65625 L 149.300781 247.785156 L 168.117188 247.699219 L 168.035156 228.53125 C 174.246094 228.226562 180.195312 227.347656 185.539062 225.246094 C 197.964844 220.253906 206.457031 209.628906 207.550781 197.433594 C 208.644531 185.277344 202.300781 173.820312 190.441406 166.8125 Z M 130.132812 140.636719 C 129.34375 138.753906 128.648438 135.753906 131.496094 131.875 C 134.820312 127.472656 141.425781 123.859375 148.515625 121.929688 L 148.691406 153.539062 C 139.9375 150.714844 132.847656 147.011719 130.132812 140.636719 Z M 130.132812 140.636719 " fill-opacity="1" fill-rule="nonzero"/><path fill="#ffff90" d="M 178.007812 201.394531 C 175.117188 202.597656 171.621094 203.058594 167.902344 203.320312 L 167.683594 168.628906 C 172.628906 170.03125 177.046875 171.476562 180.246094 173.335938 C 186.148438 176.886719 189.300781 182.273438 188.773438 188.054688 C 188.207031 193.949219 184.226562 198.941406 178.007812 201.394531 Z M 190.441406 158.835938 C 184.003906 155.003906 175.820312 152.679688 167.597656 150.621094 L 167.332031 114.179688 C 176.085938 116.808594 186.238281 122.109375 190.960938 127.054688 L 205.230469 115.734375 C 197 107.039062 180.808594 99.109375 167.246094 96.328125 L 167.15625 78.34375 L 148.34375 78.410156 L 148.386719 96.175781 C 135.167969 98.519531 122.609375 105.242188 115.957031 114.15625 C 110.269531 121.800781 109.042969 130.582031 112.589844 138.953125 C 118.757812 153.539062 134.074219 159.691406 148.824219 163.722656 L 149.039062 202.074219 C 133.199219 199.332031 116.917969 193.683594 109.566406 191.054688 L 102.742188 207.152344 C 117.1875 212.257812 133.550781 217.425781 149.214844 219.683594 L 149.300781 239.8125 L 168.117188 239.722656 L 168.035156 220.558594 C 174.246094 220.25 180.195312 219.375 185.539062 217.269531 C 197.964844 212.277344 206.457031 201.65625 207.550781 189.453125 C 208.644531 177.304688 202.300781 165.847656 190.441406 158.835938 Z M 130.132812 132.664062 C 129.34375 130.777344 128.648438 127.777344 131.496094 123.902344 C 134.820312 119.5 141.425781 115.886719 148.515625 113.957031 L 148.691406 145.566406 C 139.9375 142.738281 132.847656 139.039062 130.132812 132.664062 Z M 130.132812 132.664062 " fill-opacity="1" fill-rule="nonzero"/></svg>