<svg xmlns="http://www.w3.org/2000/svg" xmlns:xlink="http://www.w3.org/1999/xlink" width="427" zoomAndPan="magnify" viewBox="0 0 320.25 323.999988" height="432" preserveAspectRatio="xMidYMid meet" version="1.0"><path fill="#ffffff" d="M 211.15625 170.988281 C 211.15625 172.367188 211.089844 173.746094 210.953125 175.121094 C 210.820312 176.496094 210.617188 177.863281 210.347656 179.21875 C 210.078125 180.574219 209.742188 181.914062 209.339844 183.234375 C 208.9375 184.558594 208.472656 185.859375 207.945312 187.132812 C 207.417969 188.410156 206.824219 189.660156 206.175781 190.878906 C 205.523438 192.097656 204.8125 193.28125 204.046875 194.429688 C 203.277344 195.578125 202.457031 196.6875 201.578125 197.757812 C 200.703125 198.824219 199.773438 199.847656 198.796875 200.824219 C 197.820312 201.800781 196.796875 202.730469 195.730469 203.605469 C 194.660156 204.480469 193.550781 205.304688 192.402344 206.074219 C 191.253906 206.839844 190.070312 207.550781 188.851562 208.203125 C 187.632812 208.851562 186.386719 209.441406 185.109375 209.972656 C 183.832031 210.5 182.53125 210.964844 181.210938 211.367188 C 179.886719 211.769531 178.546875 212.101562 177.191406 212.375 C 175.835938 212.644531 174.472656 212.84375 173.097656 212.980469 C 171.71875 213.117188 170.339844 213.183594 168.960938 213.183594 C 167.578125 213.183594 166.199219 213.117188 164.824219 212.980469 C 163.449219 212.84375 162.082031 212.644531 160.726562 212.375 C 159.371094 212.101562 158.03125 211.769531 156.710938 211.367188 C 155.386719 210.964844 154.089844 210.5 152.8125 209.972656 C 151.535156 209.441406 150.285156 208.851562 149.066406 208.203125 C 147.847656 207.550781 146.664062 206.839844 145.515625 206.074219 C 144.367188 205.304688 143.257812 204.480469 142.191406 203.605469 C 141.121094 202.730469 140.097656 201.800781 139.121094 200.824219 C 138.144531 199.847656 137.21875 198.824219 136.339844 197.757812 C 135.464844 196.6875 134.640625 195.578125 133.875 194.429688 C 133.105469 193.28125 132.394531 192.097656 131.746094 190.878906 C 131.09375 189.660156 130.503906 188.410156 129.972656 187.132812 C 129.445312 185.859375 128.980469 184.558594 128.578125 183.234375 C 128.179688 181.914062 127.84375 180.574219 127.574219 179.21875 C 127.304688 177.863281 127.101562 176.496094 126.964844 175.121094 C 126.828125 173.746094 126.761719 172.367188 126.761719 170.988281 C 126.761719 169.605469 126.828125 168.226562 126.964844 166.851562 C 127.101562 165.476562 127.304688 164.109375 127.574219 162.753906 C 127.84375 161.398438 128.179688 160.058594 128.578125 158.738281 C 128.980469 157.414062 129.445312 156.113281 129.972656 154.839844 C 130.503906 153.5625 131.09375 152.3125 131.746094 151.09375 C 132.394531 149.875 133.105469 148.691406 133.875 147.542969 C 134.640625 146.394531 135.464844 145.285156 136.339844 144.214844 C 137.21875 143.148438 138.144531 142.125 139.121094 141.148438 C 140.097656 140.171875 141.121094 139.242188 142.191406 138.367188 C 143.257812 137.492188 144.367188 136.667969 145.515625 135.902344 C 146.664062 135.132812 147.847656 134.421875 149.066406 133.773438 C 150.285156 133.121094 151.535156 132.53125 152.8125 132 C 154.089844 131.472656 155.386719 131.007812 156.710938 130.605469 C 158.03125 130.203125 159.371094 129.871094 160.726562 129.601562 C 162.082031 129.332031 163.449219 129.128906 164.824219 128.992188 C 166.199219 128.855469 167.578125 128.789062 168.960938 128.789062 C 170.339844 128.789062 171.71875 128.855469 173.097656 128.992188 C 174.472656 129.128906 175.835938 129.332031 177.191406 129.601562 C 178.546875 129.871094 179.886719 130.203125 181.210938 130.605469 C 182.53125 131.007812 183.832031 131.472656 185.109375 132 C 186.386719 132.53125 187.632812 133.121094 188.851562 133.773438 C 190.070312 134.421875 191.253906 135.132812 192.402344 135.902344 C 193.550781 136.667969 194.660156 137.492188 195.730469 138.367188 C 196.796875 139.242188 197.820312 140.171875 198.796875 141.148438 C 199.773438 142.125 200.703125 143.148438 201.578125 144.214844 C 202.457031 145.285156 203.277344 146.394531 204.046875 147.542969 C 204.8125 148.691406 205.523438 149.875 206.175781 151.09375 C 206.824219 152.3125 207.417969 153.5625 207.945312 154.839844 C 208.472656 156.113281 208.9375 157.414062 209.339844 158.738281 C 209.742188 160.058594 210.078125 161.398438 210.347656 162.753906 C 210.617188 164.109375 210.820312 165.476562 210.953125 166.851562 C 211.089844 168.226562 211.15625 169.605469 211.15625 170.988281 Z M 211.15625 170.988281 " fill-opacity="1" fill-rule="nonzero"/><path fill="#256736" d="M 206.003906 140.25 C 205.402344 139.5625 204.777344 138.890625 204.136719 138.238281 C 203.496094 137.585938 202.835938 136.949219 202.160156 136.335938 C 201.484375 135.71875 200.789062 135.125 200.078125 134.546875 C 199.367188 133.972656 198.640625 133.414062 197.898438 132.878906 C 197.15625 132.34375 196.398438 131.832031 195.628906 131.339844 C 194.855469 130.847656 194.070312 130.375 193.273438 129.929688 C 192.476562 129.480469 191.664062 129.054688 190.84375 128.652344 C 190.019531 128.25 189.1875 127.875 188.34375 127.519531 C 187.5 127.164062 186.648438 126.832031 185.785156 126.527344 C 184.925781 126.21875 184.054688 125.9375 183.175781 125.679688 C 182.296875 125.421875 181.414062 125.1875 180.519531 124.980469 C 179.628906 124.773438 178.734375 124.59375 177.832031 124.4375 C 176.929688 124.277344 176.023438 124.148438 175.117188 124.042969 C 174.207031 123.9375 173.296875 123.855469 172.382812 123.804688 C 171.46875 123.75 170.554688 123.722656 169.640625 123.71875 C 168.722656 123.714844 167.808594 123.742188 166.894531 123.789062 C 165.980469 123.839844 165.070312 123.914062 164.160156 124.015625 C 163.25 124.117188 162.34375 124.242188 161.441406 124.394531 C 160.539062 124.546875 159.644531 124.726562 158.75 124.929688 C 157.859375 125.132812 156.972656 125.359375 156.09375 125.613281 C 155.214844 125.867188 154.34375 126.144531 153.480469 126.449219 C 152.617188 126.75 151.761719 127.078125 150.914062 127.429688 C 150.070312 127.777344 149.234375 128.152344 148.410156 128.550781 C 147.589844 128.949219 146.777344 129.371094 145.976562 129.816406 C 145.175781 130.257812 144.390625 130.726562 143.613281 131.214844 C 142.839844 131.703125 142.082031 132.210938 141.335938 132.742188 C 140.59375 133.277344 139.863281 133.828125 139.148438 134.402344 C 138.433594 134.972656 137.738281 135.566406 137.058594 136.179688 C 136.378906 136.789062 135.714844 137.421875 135.070312 138.070312 C 134.425781 138.722656 133.800781 139.386719 133.195312 140.074219 C 132.589844 140.757812 132 141.460938 131.433594 142.179688 C 130.867188 142.898438 130.320312 143.628906 129.796875 144.378906 C 128.695312 145.941406 127.691406 147.5625 126.78125 149.242188 C 125.074219 152.410156 123.742188 155.726562 122.777344 159.195312 C 121.8125 162.660156 121.246094 166.191406 121.070312 169.789062 C 121.03125 170.605469 121.007812 171.429688 121.007812 172.253906 C 121.007812 173.230469 121.035156 174.207031 121.09375 175.183594 C 121.152344 176.15625 121.242188 177.128906 121.359375 178.101562 C 121.476562 179.070312 121.621094 180.035156 121.796875 180.996094 C 121.972656 181.957031 122.179688 182.910156 122.410156 183.859375 C 122.644531 184.808594 122.90625 185.75 123.195312 186.679688 C 123.488281 187.613281 123.804688 188.539062 124.148438 189.449219 C 124.496094 190.363281 124.867188 191.265625 125.269531 192.15625 C 125.667969 193.046875 126.097656 193.925781 126.550781 194.792969 C 127.003906 195.65625 127.480469 196.507812 127.984375 197.34375 C 128.492188 198.179688 129.019531 199 129.574219 199.804688 C 130.128906 200.609375 130.707031 201.394531 131.308594 202.164062 C 131.910156 202.933594 132.535156 203.6875 133.179688 204.417969 C 133.828125 205.148438 134.496094 205.859375 135.183594 206.550781 C 135.875 207.242188 136.585938 207.914062 137.316406 208.5625 C 138.046875 209.210938 138.796875 209.835938 139.5625 210.441406 C 140.332031 211.042969 141.117188 211.625 141.921875 212.179688 C 142.722656 212.734375 143.542969 213.265625 144.378906 213.773438 C 145.210938 214.28125 146.0625 214.761719 146.925781 215.214844 C 147.789062 215.671875 148.667969 216.101562 149.558594 216.5 C 150.449219 216.902344 151.347656 217.277344 152.261719 217.628906 C 153.175781 217.976562 154.097656 218.296875 155.027344 218.585938 C 155.960938 218.878906 156.902344 219.144531 157.847656 219.378906 C 158.796875 219.613281 159.75 219.820312 160.710938 220 C 161.671875 220.175781 162.636719 220.324219 163.605469 220.445312 C 164.574219 220.5625 165.546875 220.65625 166.523438 220.714844 C 167.496094 220.777344 168.472656 220.808594 169.449219 220.808594 C 170.425781 220.8125 171.402344 220.785156 172.378906 220.726562 C 173.351562 220.671875 174.324219 220.585938 175.296875 220.46875 C 176.265625 220.351562 177.230469 220.207031 178.191406 220.035156 C 179.152344 219.859375 180.109375 219.65625 181.058594 219.425781 C 182.003906 219.195312 182.945312 218.933594 183.878906 218.648438 C 184.8125 218.359375 185.738281 218.042969 186.652344 217.699219 C 187.566406 217.355469 188.46875 216.984375 189.359375 216.582031 C 190.25 216.183594 191.128906 215.761719 191.996094 215.308594 C 192.863281 214.855469 193.714844 214.378906 194.550781 213.875 C 195.386719 213.375 196.210938 212.84375 197.015625 212.292969 C 197.820312 211.742188 198.609375 211.164062 199.378906 210.5625 C 200.148438 209.964844 200.902344 209.339844 201.632812 208.695312 C 202.367188 208.050781 203.082031 207.382812 203.773438 206.695312 C 204.464844 206.003906 205.136719 205.296875 205.785156 204.566406 C 206.4375 203.839844 207.0625 203.089844 207.667969 202.324219 C 208.273438 201.554688 208.855469 200.769531 209.410156 199.96875 C 209.96875 199.167969 210.503906 198.347656 211.011719 197.515625 C 211.519531 196.679688 212 195.832031 212.457031 194.96875 C 212.914062 194.105469 213.34375 193.230469 213.75 192.339844 C 214.152344 191.449219 214.527344 190.550781 214.878906 189.636719 C 215.226562 188.726562 215.550781 187.804688 215.84375 186.871094 C 216.136719 185.941406 216.402344 185 216.640625 184.054688 C 216.878906 183.105469 217.085938 182.152344 217.265625 181.191406 C 217.445312 180.230469 217.59375 179.265625 217.714844 178.296875 C 217.839844 177.328125 217.929688 176.355469 217.992188 175.382812 C 218.054688 174.40625 218.089844 173.433594 218.09375 172.457031 C 218.097656 171.480469 218.070312 170.503906 218.015625 169.527344 C 217.960938 168.550781 217.875 167.578125 217.761719 166.609375 C 217.648438 165.640625 217.503906 164.671875 217.332031 163.710938 C 217.160156 162.75 216.960938 161.796875 216.730469 160.847656 C 216.5 159.898438 216.242188 158.957031 215.957031 158.019531 C 215.667969 157.085938 215.355469 156.164062 215.011719 155.25 C 214.667969 154.335938 214.300781 153.429688 213.902344 152.539062 C 213.507812 151.644531 213.082031 150.765625 212.632812 149.898438 C 212.183594 149.03125 211.707031 148.179688 211.203125 147.339844 C 210.703125 146.503906 210.175781 145.679688 209.625 144.875 C 209.074219 144.066406 208.5 143.28125 207.902344 142.507812 C 207.300781 141.734375 206.679688 140.984375 206.035156 140.25 Z M 153.335938 178.957031 C 157.4375 181.835938 161.273438 183.5625 165.242188 184.203125 L 165.242188 176.507812 C 154.9375 174.140625 149.6875 170.625 149.6875 162.6875 L 149.6875 162.558594 C 149.6875 155.007812 155.195312 149.761719 164.988281 149.054688 L 164.988281 145.40625 L 171.644531 145.40625 L 171.644531 149.246094 C 176.566406 149.761719 181.066406 151.425781 185.140625 154.242188 L 179.894531 162.8125 C 177.269531 161.011719 174.414062 159.746094 171.320312 159.007812 L 171.320312 166.429688 C 181.472656 168.796875 186.613281 172.445312 186.613281 180.390625 L 186.613281 180.515625 C 186.613281 188.324219 180.597656 193.121094 171.511719 193.957031 L 171.511719 200.226562 L 164.859375 200.226562 L 164.859375 193.785156 C 161.757812 193.488281 158.738281 192.800781 155.8125 191.726562 C 152.882812 190.652344 150.140625 189.222656 147.582031 187.441406 Z M 153.335938 178.957031 " fill-opacity="1" fill-rule="nonzero"/><path fill="#256736" d="M 175.546875 181.308594 L 175.546875 181.183594 C 175.546875 179.453125 174.582031 178.492188 171.257812 177.535156 L 171.257812 184.570312 C 174.199219 184.253906 175.546875 183.164062 175.546875 181.308594 Z M 175.546875 181.308594 " fill-opacity="1" fill-rule="nonzero"/><path fill="#256736" d="M 165.304688 158.398438 C 162.171875 158.65625 160.953125 159.9375 160.953125 161.601562 L 160.953125 161.726562 C 160.953125 163.390625 161.851562 164.347656 165.304688 165.3125 Z M 165.304688 158.398438 " fill-opacity="1" fill-rule="nonzero"/><path fill="#ffffff" d="M 284.652344 152.585938 C 284.652344 154.765625 284.597656 156.945312 284.488281 159.121094 C 284.382812 161.300781 284.222656 163.472656 284.007812 165.640625 C 283.796875 167.8125 283.527344 169.976562 283.207031 172.132812 C 282.890625 174.289062 282.515625 176.4375 282.089844 178.574219 C 281.664062 180.710938 281.1875 182.839844 280.65625 184.953125 C 280.128906 187.070312 279.546875 189.167969 278.914062 191.257812 C 278.28125 193.34375 277.597656 195.414062 276.863281 197.464844 C 276.128906 199.519531 275.34375 201.550781 274.511719 203.566406 C 273.675781 205.578125 272.792969 207.574219 271.859375 209.542969 C 270.929688 211.515625 269.949219 213.460938 268.921875 215.382812 C 267.890625 217.308594 266.816406 219.203125 265.695312 221.074219 C 264.578125 222.941406 263.410156 224.785156 262.199219 226.597656 C 260.988281 228.410156 259.734375 230.191406 258.433594 231.945312 C 257.136719 233.695312 255.792969 235.414062 254.410156 237.097656 C 253.027344 238.785156 251.605469 240.433594 250.140625 242.050781 C 248.675781 243.664062 247.171875 245.242188 245.632812 246.785156 C 244.089844 248.328125 242.511719 249.828125 240.894531 251.292969 C 239.28125 252.757812 237.628906 254.183594 235.945312 255.566406 C 234.257812 256.949219 232.539062 258.289062 230.789062 259.585938 C 229.039062 260.886719 227.257812 262.140625 225.445312 263.351562 C 223.628906 264.5625 221.789062 265.730469 219.917969 266.851562 C 218.050781 267.972656 216.152344 269.046875 214.230469 270.074219 C 212.308594 271.101562 210.359375 272.082031 208.390625 273.015625 C 206.417969 273.945312 204.425781 274.828125 202.410156 275.664062 C 200.398438 276.5 198.363281 277.28125 196.3125 278.015625 C 194.257812 278.75 192.1875 279.433594 190.101562 280.066406 C 188.015625 280.699219 185.914062 281.28125 183.800781 281.8125 C 181.683594 282.34375 179.558594 282.820312 177.421875 283.246094 C 175.28125 283.671875 173.132812 284.042969 170.976562 284.363281 C 168.820312 284.683594 166.65625 284.949219 164.488281 285.164062 C 162.320312 285.375 160.144531 285.539062 157.96875 285.644531 C 155.789062 285.75 153.609375 285.804688 151.429688 285.804688 C 149.25 285.804688 147.070312 285.75 144.894531 285.644531 C 142.714844 285.539062 140.542969 285.375 138.371094 285.164062 C 136.203125 284.949219 134.039062 284.683594 131.882812 284.363281 C 129.726562 284.042969 127.578125 283.671875 125.441406 283.246094 C 123.300781 282.820312 121.175781 282.34375 119.058594 281.8125 C 116.945312 281.28125 114.84375 280.699219 112.757812 280.066406 C 110.671875 279.433594 108.601562 278.75 106.550781 278.015625 C 104.496094 277.28125 102.464844 276.5 100.449219 275.664062 C 98.433594 274.828125 96.441406 273.945312 94.472656 273.015625 C 92.5 272.082031 90.554688 271.101562 88.628906 270.074219 C 86.707031 269.046875 84.8125 267.972656 82.941406 266.851562 C 81.070312 265.730469 79.230469 264.5625 77.417969 263.351562 C 75.605469 262.140625 73.824219 260.886719 72.070312 259.585938 C 70.320312 258.289062 68.601562 256.949219 66.917969 255.566406 C 65.230469 254.183594 63.582031 252.757812 61.964844 251.292969 C 60.351562 249.828125 58.769531 248.328125 57.230469 246.785156 C 55.6875 245.242188 54.183594 243.664062 52.71875 242.050781 C 51.257812 240.433594 49.832031 238.785156 48.449219 237.097656 C 47.066406 235.414062 45.726562 233.695312 44.425781 231.945312 C 43.128906 230.191406 41.871094 228.410156 40.660156 226.597656 C 39.449219 224.785156 38.285156 222.941406 37.164062 221.074219 C 36.042969 219.203125 34.96875 217.308594 33.941406 215.382812 C 32.914062 213.460938 31.933594 211.515625 31 209.542969 C 30.070312 207.574219 29.183594 205.578125 28.351562 203.566406 C 27.515625 201.550781 26.730469 199.519531 25.996094 197.464844 C 25.261719 195.414062 24.578125 193.34375 23.945312 191.257812 C 23.3125 189.167969 22.730469 187.070312 22.203125 184.953125 C 21.671875 182.839844 21.195312 180.710938 20.769531 178.574219 C 20.34375 176.4375 19.972656 174.289062 19.652344 172.132812 C 19.332031 169.976562 19.066406 167.8125 18.851562 165.640625 C 18.636719 163.472656 18.476562 161.300781 18.371094 159.121094 C 18.261719 156.945312 18.210938 154.765625 18.210938 152.585938 C 18.210938 150.402344 18.261719 148.226562 18.371094 146.046875 C 18.476562 143.871094 18.636719 141.695312 18.851562 139.527344 C 19.066406 137.355469 19.332031 135.195312 19.652344 133.035156 C 19.972656 130.878906 20.34375 128.734375 20.769531 126.59375 C 21.195312 124.457031 21.671875 122.328125 22.203125 120.214844 C 22.730469 118.101562 23.3125 116 23.945312 113.914062 C 24.578125 111.828125 25.261719 109.757812 25.996094 107.703125 C 26.730469 105.652344 27.515625 103.617188 28.351562 101.601562 C 29.183594 99.589844 30.070312 97.597656 31 95.625 C 31.933594 93.65625 32.914062 91.707031 33.941406 89.785156 C 34.96875 87.863281 36.042969 85.964844 37.164062 84.09375 C 38.285156 82.226562 39.449219 80.382812 40.660156 78.570312 C 41.871094 76.757812 43.128906 74.976562 44.425781 73.226562 C 45.726562 71.472656 47.066406 69.753906 48.449219 68.070312 C 49.832031 66.386719 51.257812 64.734375 52.71875 63.121094 C 54.183594 61.503906 55.6875 59.925781 57.230469 58.382812 C 58.769531 56.839844 60.351562 55.339844 61.964844 53.875 C 63.582031 52.410156 65.230469 50.988281 66.917969 49.605469 C 68.601562 48.21875 70.320312 46.878906 72.070312 45.582031 C 73.824219 44.28125 75.605469 43.027344 77.417969 41.816406 C 79.230469 40.605469 81.070312 39.4375 82.941406 38.316406 C 84.8125 37.195312 86.707031 36.121094 88.628906 35.09375 C 90.554688 34.066406 92.5 33.085938 94.472656 32.15625 C 96.441406 31.222656 98.433594 30.339844 100.449219 29.503906 C 102.464844 28.671875 104.496094 27.886719 106.550781 27.152344 C 108.601562 26.417969 110.671875 25.734375 112.757812 25.101562 C 114.84375 24.46875 116.945312 23.886719 119.058594 23.355469 C 121.175781 22.828125 123.300781 22.347656 125.441406 21.925781 C 127.578125 21.5 129.726562 21.125 131.882812 20.804688 C 134.039062 20.484375 136.203125 20.21875 138.371094 20.003906 C 140.542969 19.792969 142.714844 19.632812 144.894531 19.523438 C 147.070312 19.417969 149.25 19.363281 151.429688 19.363281 C 153.609375 19.363281 155.789062 19.417969 157.96875 19.523438 C 160.144531 19.632812 162.320312 19.792969 164.488281 20.003906 C 166.65625 20.21875 168.820312 20.484375 170.976562 20.804688 C 173.132812 21.125 175.28125 21.5 177.421875 21.925781 C 179.558594 22.347656 181.683594 22.828125 183.800781 23.355469 C 185.914062 23.886719 188.015625 24.46875 190.101562 25.101562 C 192.1875 25.734375 194.257812 26.417969 196.3125 27.152344 C 198.363281 27.886719 200.398438 28.671875 202.410156 29.503906 C 204.425781 30.339844 206.417969 31.222656 208.390625 32.15625 C 210.359375 33.085938 212.308594 34.066406 214.230469 35.09375 C 216.152344 36.121094 218.050781 37.195312 219.917969 38.316406 C 221.789062 39.4375 223.628906 40.605469 225.445312 41.816406 C 227.257812 43.027344 229.039062 44.28125 230.789062 45.582031 C 232.539062 46.878906 234.257812 48.21875 235.945312 49.605469 C 237.628906 50.988281 239.28125 52.410156 240.894531 53.875 C 242.511719 55.339844 244.089844 56.839844 245.632812 58.382812 C 247.171875 59.925781 248.675781 61.503906 250.140625 63.121094 C 251.605469 64.734375 253.027344 66.386719 254.410156 68.070312 C 255.792969 69.753906 257.136719 71.472656 258.433594 73.226562 C 259.734375 74.976562 260.988281 76.757812 262.199219 78.570312 C 263.410156 80.382812 264.578125 82.226562 265.695312 84.09375 C 266.816406 85.964844 267.890625 87.863281 268.921875 89.785156 C 269.949219 91.707031 270.929688 93.65625 271.859375 95.625 C 272.792969 97.597656 273.675781 99.589844 274.511719 101.601562 C 275.34375 103.617188 276.128906 105.652344 276.863281 107.703125 C 277.597656 109.757812 278.28125 111.828125 278.914062 113.914062 C 279.546875 116 280.128906 118.101562 280.65625 120.214844 C 281.1875 122.328125 281.664062 124.457031 282.089844 126.59375 C 282.515625 128.734375 282.890625 130.878906 283.207031 133.035156 C 283.527344 135.195312 283.796875 137.355469 284.007812 139.527344 C 284.222656 141.695312 284.382812 143.871094 284.488281 146.046875 C 284.597656 148.226562 284.652344 150.402344 284.652344 152.585938 Z M 284.652344 152.585938 " fill-opacity="1" fill-rule="nonzero"/><path fill="#256736" d="M 268.382812 55.542969 C 266.480469 53.371094 264.515625 51.253906 262.488281 49.195312 C 260.464844 47.132812 258.382812 45.132812 256.246094 43.1875 C 254.109375 41.246094 251.917969 39.363281 249.671875 37.542969 C 247.425781 35.726562 245.132812 33.96875 242.789062 32.28125 C 240.445312 30.589844 238.058594 28.96875 235.621094 27.414062 C 233.1875 25.859375 230.707031 24.375 228.1875 22.960938 C 225.667969 21.546875 223.113281 20.207031 220.515625 18.9375 C 217.921875 17.667969 215.292969 16.472656 212.628906 15.351562 C 209.96875 14.230469 207.273438 13.1875 204.550781 12.21875 C 201.832031 11.25 199.082031 10.359375 196.3125 9.546875 C 193.539062 8.734375 190.746094 8 187.929688 7.34375 C 185.117188 6.691406 182.289062 6.117188 179.441406 5.621094 C 176.59375 5.125 173.734375 4.710938 170.867188 4.378906 C 167.996094 4.046875 165.121094 3.792969 162.234375 3.625 C 159.351562 3.453125 156.464844 3.363281 153.574219 3.359375 C 150.6875 3.351562 147.800781 3.425781 144.914062 3.582031 C 142.03125 3.738281 139.152344 3.976562 136.28125 4.296875 C 133.410156 4.613281 130.546875 5.015625 127.699219 5.496094 C 124.851562 5.976562 122.019531 6.539062 119.203125 7.179688 C 116.382812 7.820312 113.585938 8.542969 110.8125 9.339844 C 108.035156 10.140625 105.285156 11.015625 102.558594 11.972656 C 99.832031 12.929688 97.132812 13.960938 94.464844 15.066406 C 91.796875 16.175781 89.160156 17.359375 86.558594 18.613281 C 83.957031 19.871094 81.394531 21.199219 78.867188 22.601562 C 76.34375 24.003906 73.859375 25.476562 71.414062 27.019531 C 68.972656 28.5625 66.574219 30.171875 64.222656 31.851562 C 61.871094 33.527344 59.570312 35.273438 57.316406 37.082031 C 55.0625 38.890625 52.863281 40.757812 50.714844 42.691406 C 48.566406 44.625 46.476562 46.617188 44.441406 48.667969 C 42.40625 50.71875 40.433594 52.828125 38.515625 54.988281 C 36.601562 57.152344 34.75 59.367188 32.960938 61.636719 C 31.167969 63.902344 29.445312 66.21875 27.785156 68.585938 C 24.320312 73.515625 21.148438 78.632812 18.269531 83.929688 C 12.886719 93.933594 8.671875 104.410156 5.628906 115.355469 C 2.585938 126.304688 0.789062 137.449219 0.242188 148.796875 C 0.121094 151.382812 0.0390625 153.988281 0.0390625 156.589844 C 0.0390625 159.675781 0.132812 162.753906 0.316406 165.832031 C 0.503906 168.910156 0.78125 171.980469 1.152344 175.042969 C 1.519531 178.105469 1.984375 181.152344 2.539062 184.183594 C 3.09375 187.21875 3.738281 190.230469 4.472656 193.226562 C 5.210938 196.21875 6.035156 199.191406 6.953125 202.132812 C 7.867188 205.078125 8.871094 207.992188 9.964844 210.878906 C 11.054688 213.761719 12.234375 216.609375 13.496094 219.421875 C 14.757812 222.234375 16.105469 225.007812 17.539062 227.738281 C 18.96875 230.472656 20.480469 233.15625 22.074219 235.796875 C 23.667969 238.4375 25.335938 241.027344 27.085938 243.566406 C 28.835938 246.105469 30.660156 248.589844 32.558594 251.019531 C 34.460938 253.449219 36.429688 255.820312 38.472656 258.128906 C 40.515625 260.441406 42.625 262.6875 44.804688 264.867188 C 46.980469 267.050781 49.222656 269.167969 51.527344 271.214844 C 53.832031 273.261719 56.199219 275.238281 58.625 277.144531 C 61.050781 279.046875 63.527344 280.878906 66.066406 282.632812 C 68.601562 284.390625 71.1875 286.066406 73.824219 287.664062 C 76.460938 289.265625 79.140625 290.78125 81.871094 292.21875 C 84.597656 293.65625 87.367188 295.011719 90.175781 296.28125 C 92.988281 297.550781 95.832031 298.734375 98.714844 299.832031 C 101.597656 300.929688 104.507812 301.941406 107.449219 302.863281 C 110.394531 303.785156 113.359375 304.617188 116.351562 305.363281 C 119.347656 306.105469 122.359375 306.757812 125.390625 307.320312 C 128.421875 307.878906 131.46875 308.347656 134.527344 308.726562 C 137.589844 309.105469 140.660156 309.390625 143.734375 309.582031 C 146.8125 309.773438 149.894531 309.875 152.976562 309.878906 C 156.0625 309.886719 159.144531 309.800781 162.222656 309.621094 C 165.300781 309.441406 168.371094 309.167969 171.433594 308.804688 C 174.492188 308.4375 177.542969 307.980469 180.574219 307.433594 C 183.609375 306.882812 186.625 306.242188 189.621094 305.511719 C 192.617188 304.78125 195.589844 303.960938 198.535156 303.050781 C 201.480469 302.140625 204.398438 301.140625 207.28125 300.054688 C 210.167969 298.96875 213.019531 297.796875 215.835938 296.539062 C 218.648438 295.28125 221.425781 293.9375 224.15625 292.511719 C 226.890625 291.085938 229.582031 289.578125 232.222656 287.992188 C 234.867188 286.402344 237.460938 284.738281 240.003906 282.992188 C 242.546875 281.246094 245.035156 279.425781 247.464844 277.53125 C 249.898438 275.636719 252.273438 273.671875 254.585938 271.632812 C 256.898438 269.59375 259.152344 267.488281 261.335938 265.316406 C 263.523438 263.140625 265.644531 260.902344 267.695312 258.601562 C 269.746094 256.300781 271.726562 253.9375 273.636719 251.515625 C 275.546875 249.09375 277.382812 246.617188 279.140625 244.085938 C 280.902344 241.554688 282.582031 238.96875 284.1875 236.335938 C 285.789062 233.703125 287.3125 231.023438 288.753906 228.296875 C 290.199219 225.570312 291.554688 222.804688 292.832031 219.996094 C 294.105469 217.191406 295.296875 214.347656 296.398438 211.464844 C 297.503906 208.585938 298.519531 205.675781 299.445312 202.738281 C 300.375 199.796875 301.210938 196.828125 301.960938 193.839844 C 302.710938 190.847656 303.367188 187.835938 303.933594 184.804688 C 304.5 181.773438 304.976562 178.726562 305.359375 175.667969 C 305.742188 172.609375 306.03125 169.539062 306.230469 166.464844 C 306.429688 163.386719 306.535156 160.304688 306.546875 157.222656 C 306.558594 154.136719 306.476562 151.058594 306.300781 147.976562 C 306.128906 144.898438 305.863281 141.828125 305.503906 138.765625 C 305.144531 135.703125 304.691406 132.65625 304.148438 129.621094 C 303.605469 126.582031 302.96875 123.566406 302.246094 120.570312 C 301.519531 117.574219 300.703125 114.601562 299.800781 111.652344 C 298.894531 108.707031 297.902344 105.789062 296.820312 102.898438 C 295.738281 100.011719 294.570312 97.160156 293.320312 94.339844 C 292.066406 91.523438 290.726562 88.746094 289.308594 86.011719 C 287.886719 83.273438 286.382812 80.582031 284.800781 77.9375 C 283.21875 75.289062 281.554688 72.695312 279.816406 70.148438 C 278.074219 67.601562 276.261719 65.109375 274.371094 62.675781 C 272.480469 60.238281 270.519531 57.863281 268.484375 55.542969 Z M 102.109375 177.746094 C 115.050781 186.839844 127.171875 192.289062 139.691406 194.3125 L 139.691406 170.011719 C 107.15625 162.539062 90.589844 151.441406 90.589844 126.382812 L 90.589844 125.980469 C 90.589844 102.140625 107.976562 85.574219 138.890625 83.351562 L 138.890625 71.832031 L 159.90625 71.832031 L 159.90625 83.949219 C 167.554688 84.753906 174.988281 86.488281 182.199219 89.15625 C 189.414062 91.824219 196.1875 95.347656 202.515625 99.71875 L 185.949219 126.78125 C 177.671875 121.097656 168.648438 117.09375 158.882812 114.761719 L 158.882812 138.199219 C 190.9375 145.671875 207.164062 157.191406 207.164062 182.273438 L 207.164062 182.675781 C 207.164062 207.316406 188.171875 222.460938 159.484375 225.105469 L 159.484375 244.898438 L 138.488281 244.898438 L 138.488281 224.5625 C 133.609375 224.09375 128.777344 223.316406 123.996094 222.230469 C 119.21875 221.140625 114.523438 219.75 109.921875 218.0625 C 105.320312 216.371094 100.84375 214.394531 96.496094 212.128906 C 92.148438 209.863281 87.960938 207.332031 83.9375 204.53125 Z M 102.109375 177.746094 " fill-opacity="1" fill-rule="nonzero"/><path fill="#256736" d="M 172.226562 185.179688 L 172.226562 184.777344 C 172.226562 179.308594 169.179688 176.285156 158.683594 173.257812 L 158.683594 195.476562 C 167.976562 194.472656 172.226562 191.027344 172.226562 185.179688 Z M 172.226562 185.179688 " fill-opacity="1" fill-rule="nonzero"/><path fill="#256736" d="M 139.890625 112.839844 C 129.996094 113.660156 126.148438 117.707031 126.148438 122.957031 L 126.148438 123.355469 C 126.148438 128.605469 128.992188 131.628906 139.890625 134.675781 Z M 139.890625 112.839844 " fill-opacity="1" fill-rule="nonzero"/></svg>